<svg version="1.1" id="Layer_1" xmlns="http://www.w3.org/2000/svg" xmlns:xlink="http://www.w3.org/1999/xlink" x="0px" y="0px"
	 width="100%" viewBox="0 0 512 512" enable-background="new 0 0 512 512" xml:space="preserve">
<path fill="#000000" opacity="1.000000" stroke="none" 
	d="
M240.000000,513.000000 
	C160.019394,513.000000 80.538788,513.000000 1.029092,513.000000 
	C1.029092,342.394379 1.029092,171.788727 1.029092,1.091547 
	C171.563965,1.091547 342.127991,1.091547 512.846008,1.091547 
	C512.846008,171.666565 512.846008,342.333252 512.846008,513.000000 
	C422.122040,513.000000 331.311005,513.000000 240.000000,513.000000 
M470.700531,262.645782 
	C471.858704,259.544373 473.262115,256.510162 474.133881,253.330215 
	C478.615814,236.981735 482.961578,220.595901 487.354095,204.222931 
	C490.131622,193.869781 492.907776,183.516281 495.781769,172.800629 
	C493.684265,172.543228 492.236603,172.284958 490.778748,172.198730 
	C468.169922,170.861282 445.560211,169.538361 422.949829,168.227341 
	C359.437653,164.544724 295.924957,160.871002 232.412796,157.188538 
	C224.280869,156.717026 223.270721,155.898621 221.179977,148.284592 
	C217.787704,147.910416 214.409714,147.537796 210.107666,147.017136 
	C205.070267,147.017136 200.032852,147.017136 194.667892,147.017136 
	C194.667892,147.901276 194.577347,149.353271 194.682404,150.790970 
	C195.434784,161.088150 196.199890,171.384552 197.011551,181.677216 
	C199.655945,215.210999 202.192734,248.754105 205.059555,282.268951 
	C205.902939,292.128571 211.052094,299.959412 220.552231,303.086060 
	C226.821976,305.149536 233.959030,306.080017 240.520569,305.477966 
	C261.729797,303.531830 282.847961,300.604340 304.009369,298.124420 
	C350.297668,292.699890 396.607330,287.452393 442.871155,281.827484 
	C454.945038,280.359528 464.158997,273.837158 470.700531,262.645782 
M174.064880,393.638306 
	C179.482224,389.405273 183.531845,384.296661 184.132660,377.162903 
	C184.722443,370.160400 181.174362,366.111511 174.224777,365.613434 
	C162.793060,364.794098 149.980011,376.343933 149.603745,387.807159 
	C149.414551,393.570831 152.347412,397.271881 158.056564,398.276764 
	C163.832611,399.293396 168.814056,397.237640 174.064880,393.638306 
M419.091217,398.437958 
	C429.803467,396.361816 437.183197,390.331757 440.183014,379.748993 
	C442.747894,370.700470 437.364166,364.540802 427.968811,365.744476 
	C417.858795,367.039703 410.942139,372.998444 407.270538,382.284607 
	C403.464142,391.911682 407.810730,397.997833 419.091217,398.437958 
z"/>
<path fill="#FDC168" opacity="1.000000" stroke="none" 
	d="
M211.031708,147.165192 
	C214.409714,147.537796 217.787704,147.910416 221.179977,148.284592 
	C223.270721,155.898621 224.280869,156.717026 232.412796,157.188538 
	C295.924957,160.871002 359.437653,164.544724 422.949829,168.227341 
	C445.560211,169.538361 468.169922,170.861282 490.778748,172.198730 
	C492.236603,172.284958 493.684265,172.543228 495.781769,172.800629 
	C492.907776,183.516281 490.131622,193.869781 487.354095,204.222931 
	C482.961578,220.595901 478.615814,236.981735 474.133881,253.330215 
	C473.262115,256.510162 471.858704,259.544373 469.975922,262.839569 
	C459.368774,264.135010 449.483215,265.210205 439.604462,266.344757 
	C426.269257,267.876282 412.938629,269.447876 399.607269,271.012787 
	C386.604584,272.539001 373.604797,274.090027 360.601257,275.609039 
	C345.126495,277.416687 329.648895,279.199982 314.172943,280.997101 
	C301.003906,282.526337 287.848236,284.182953 274.663025,285.556671 
	C262.136902,286.861755 249.597229,288.158295 237.030670,288.909302 
	C229.198959,289.377319 223.551346,284.452881 222.262848,276.885406 
	C221.568802,272.809143 221.334381,268.647980 221.015625,264.515625 
	C219.944534,250.630463 219.009155,236.734451 217.872253,222.854843 
	C216.316391,203.860565 214.651260,184.875061 212.973557,165.891037 
	C212.421188,159.640701 211.684235,153.406677 211.031708,147.165192 
M241.327148,267.614319 
	C241.245361,272.291473 243.370178,275.408478 248.098816,275.902863 
	C252.610840,276.374573 255.126068,273.748962 256.264099,269.501434 
	C262.458069,246.383484 268.739563,223.288864 274.887939,200.158844 
	C276.336884,194.708084 274.448303,191.035263 270.011871,189.740723 
	C265.478119,188.417786 261.808228,190.859421 260.292725,196.502441 
	C253.998688,219.938416 247.776001,243.393539 241.327148,267.614319 
M306.502655,245.057755 
	C310.202576,231.281021 313.929016,217.511337 317.589630,203.724167 
	C319.110443,197.996246 317.365173,194.085480 312.890930,192.816406 
	C308.293762,191.512466 304.630768,193.930069 303.133026,199.508652 
	C297.627686,220.014313 292.165833,240.531754 286.743469,261.059540 
	C285.425232,266.050079 287.277740,269.841187 291.396637,271.078369 
	C295.875671,272.423676 299.607086,270.208435 301.078094,265.057343 
	C302.899719,258.678375 304.523224,252.242844 306.502655,245.057755 
M340.996460,265.017242 
	C342.784485,263.018921 345.541504,261.298279 346.206421,258.978088 
	C351.287964,241.246628 356.017914,223.413132 360.725403,205.576569 
	C361.993347,200.772232 359.667023,196.821091 355.456940,195.827316 
	C351.081757,194.794556 347.483765,196.992233 346.148315,201.915375 
	C341.362335,219.558868 336.603668,237.210892 332.025299,254.909012 
	C330.326508,261.475983 333.238281,264.870667 340.996460,265.017242 
M401.276459,216.877792 
	C401.970795,214.314133 402.707001,211.760925 403.350616,209.184601 
	C404.659943,203.943542 402.720062,199.975891 398.382721,198.911972 
	C393.843781,197.798615 390.395813,200.054764 388.938812,205.368317 
	C384.988159,219.776062 381.088898,234.198242 377.254028,248.637207 
	C375.712219,254.442322 377.790527,258.657104 382.485352,259.752563 
	C386.799438,260.759186 390.355896,258.001251 391.878967,252.326553 
	C394.976990,240.783691 398.018982,229.225800 401.276459,216.877792 
M441.921021,228.464661 
	C443.280884,223.328140 444.756989,218.218826 445.967712,213.047394 
	C447.160522,207.952484 445.208984,204.136200 441.145966,203.024002 
	C436.654266,201.794464 432.967194,204.019958 431.515564,209.242569 
	C428.269348,220.921616 425.126282,232.630615 422.081696,244.363876 
	C420.702087,249.680679 422.683838,253.669632 426.912231,254.847931 
	C431.357880,256.086761 435.130737,253.517685 436.675110,248.019318 
	C438.426270,241.784637 440.046021,235.513062 441.921021,228.464661 
z"/>
<path fill="#FDA85E" opacity="1.000000" stroke="none" 
	d="
M210.569687,147.091156 
	C211.684235,153.406677 212.421188,159.640701 212.973557,165.891037 
	C214.651260,184.875061 216.316391,203.860565 217.872253,222.854843 
	C219.009155,236.734451 219.944534,250.630463 221.015625,264.515625 
	C221.334381,268.647980 221.568802,272.809143 222.262848,276.885406 
	C223.551346,284.452881 229.198959,289.377319 237.030670,288.909302 
	C249.597229,288.158295 262.136902,286.861755 274.663025,285.556671 
	C287.848236,284.182953 301.003906,282.526337 314.172943,280.997101 
	C329.648895,279.199982 345.126495,277.416687 360.601257,275.609039 
	C373.604797,274.090027 386.604584,272.539001 399.607269,271.012787 
	C412.938629,269.447876 426.269257,267.876282 439.604462,266.344757 
	C449.483215,265.210205 459.368774,264.135010 469.690125,263.043579 
	C464.158997,273.837158 454.945038,280.359528 442.871155,281.827484 
	C396.607330,287.452393 350.297668,292.699890 304.009369,298.124420 
	C282.847961,300.604340 261.729797,303.531830 240.520569,305.477966 
	C233.959030,306.080017 226.821976,305.149536 220.552231,303.086060 
	C211.052094,299.959412 205.902939,292.128571 205.059555,282.268951 
	C202.192734,248.754105 199.655945,215.210999 197.011551,181.677216 
	C196.199890,171.384552 195.434784,161.088150 194.682404,150.790970 
	C194.577347,149.353271 194.667892,147.901276 194.667892,147.017136 
	C200.032852,147.017136 205.070267,147.017136 210.569687,147.091156 
z"/>
<path fill="#837C85" opacity="1.000000" stroke="none" 
	d="
M173.762085,393.841675 
	C168.814056,397.237640 163.832611,399.293396 158.056564,398.276764 
	C152.347412,397.271881 149.414551,393.570831 149.603745,387.807159 
	C149.980011,376.343933 162.793060,364.794098 174.224777,365.613434 
	C181.174362,366.111511 184.722443,370.160400 184.132660,377.162903 
	C183.531845,384.296661 179.482224,389.405273 173.762085,393.841675 
z"/>
<path fill="#837C85" opacity="1.000000" stroke="none" 
	d="
M418.696075,398.501160 
	C407.810730,397.997833 403.464142,391.911682 407.270538,382.284607 
	C410.942139,372.998444 417.858795,367.039703 427.968811,365.744476 
	C437.364166,364.540802 442.747894,370.700470 440.183014,379.748993 
	C437.183197,390.331757 429.803467,396.361816 418.696075,398.501160 
z"/>
<path fill="#050402" opacity="1.000000" stroke="none" 
	d="
M241.427155,267.227966 
	C247.776001,243.393539 253.998688,219.938416 260.292725,196.502441 
	C261.808228,190.859421 265.478119,188.417786 270.011871,189.740723 
	C274.448303,191.035263 276.336884,194.708084 274.887939,200.158844 
	C268.739563,223.288864 262.458069,246.383484 256.264099,269.501434 
	C255.126068,273.748962 252.610840,276.374573 248.098816,275.902863 
	C243.370178,275.408478 241.245361,272.291473 241.427155,267.227966 
z"/>
<path fill="#050402" opacity="1.000000" stroke="none" 
	d="
M306.367493,245.444763 
	C304.523224,252.242844 302.899719,258.678375 301.078094,265.057343 
	C299.607086,270.208435 295.875671,272.423676 291.396637,271.078369 
	C287.277740,269.841187 285.425232,266.050079 286.743469,261.059540 
	C292.165833,240.531754 297.627686,220.014313 303.133026,199.508652 
	C304.630768,193.930069 308.293762,191.512466 312.890930,192.816406 
	C317.365173,194.085480 319.110443,197.996246 317.589630,203.724167 
	C313.929016,217.511337 310.202576,231.281021 306.367493,245.444763 
z"/>
<path fill="#050402" opacity="1.000000" stroke="none" 
	d="
M340.596802,265.082336 
	C333.238281,264.870667 330.326508,261.475983 332.025299,254.909012 
	C336.603668,237.210892 341.362335,219.558868 346.148315,201.915375 
	C347.483765,196.992233 351.081757,194.794556 355.456940,195.827316 
	C359.667023,196.821091 361.993347,200.772232 360.725403,205.576569 
	C356.017914,223.413132 351.287964,241.246628 346.206421,258.978088 
	C345.541504,261.298279 342.784485,263.018921 340.596802,265.082336 
z"/>
<path fill="#050402" opacity="1.000000" stroke="none" 
	d="
M401.180237,217.275940 
	C398.018982,229.225800 394.976990,240.783691 391.878967,252.326553 
	C390.355896,258.001251 386.799438,260.759186 382.485352,259.752563 
	C377.790527,258.657104 375.712219,254.442322 377.254028,248.637207 
	C381.088898,234.198242 384.988159,219.776062 388.938812,205.368317 
	C390.395813,200.054764 393.843781,197.798615 398.382721,198.911972 
	C402.720062,199.975891 404.659943,203.943542 403.350616,209.184601 
	C402.707001,211.760925 401.970795,214.314133 401.180237,217.275940 
z"/>
<path fill="#050402" opacity="1.000000" stroke="none" 
	d="
M441.821960,228.861084 
	C440.046021,235.513062 438.426270,241.784637 436.675110,248.019318 
	C435.130737,253.517685 431.357880,256.086761 426.912231,254.847931 
	C422.683838,253.669632 420.702087,249.680679 422.081696,244.363876 
	C425.126282,232.630615 428.269348,220.921616 431.515564,209.242569 
	C432.967194,204.019958 436.654266,201.794464 441.145966,203.024002 
	C445.208984,204.136200 447.160522,207.952484 445.967712,213.047394 
	C444.756989,218.218826 443.280884,223.328140 441.821960,228.861084 
z"/>
</svg>